REM DIRINDEX 1\6,1\2\7,1\2\8,1\2\9,1\3\10,1\3\11,1\4\12,1\4\13,1\4\14,1\5\15,1\5\16,1\5\17
REM DIRNAME cjc041,folder01,folder02,folder03,folder04,folder05,folder06,folder07,folder08,folder09,folder10,folder11,folder12,folder13,folder14,folder15,folder16
TITLE ""
FILE "3Q_t_0016-0031.mp3" MP3
  TRACK 01 AUDIO
    TITLE "10:cjc041_1635"
    INDEX 01 00:00:00
  TRACK 02 AUDIO
    TITLE "0:"
    INDEX 01 00:01:01
  TRACK 03 AUDIO
    TITLE "11:cjc041_1636"
    INDEX 01 00:01:58
  TRACK 04 AUDIO
    TITLE "0:"
    INDEX 01 00:05:73
  TRACK 05 AUDIO
    TITLE "10:cjc041_1637"
    INDEX 01 00:06:55
  TRACK 06 AUDIO
    TITLE "0:"
    INDEX 01 00:07:68
  TRACK 07 AUDIO
    TITLE "11:cjc041_1638"
    INDEX 01 00:08:46
  TRACK 08 AUDIO
    TITLE "0:"
    INDEX 01 00:09:59
  TRACK 09 AUDIO
    TITLE "10:cjc041_1639"
    INDEX 01 00:10:33
  TRACK 10 AUDIO
    TITLE "0:"
    INDEX 01 00:11:44
  TRACK 11 AUDIO
    TITLE "11:cjc041_1640"
    INDEX 01 00:12:24
  TRACK 12 AUDIO
    TITLE "0:"
    INDEX 01 00:15:46
  TRACK 13 AUDIO
    TITLE "10:cjc041_1641"
    INDEX 01 00:16:24
  TRACK 14 AUDIO
    TITLE "0:"
    INDEX 01 00:17:29
  TRACK 15 AUDIO
    TITLE "11:cjc041_1642"
    INDEX 01 00:18:11
  TRACK 16 AUDIO
    TITLE "0:"
    INDEX 01 00:22:56
  TRACK 17 AUDIO
    TITLE "10:cjc041_1643"
    INDEX 01 00:23:36
  TRACK 18 AUDIO
    TITLE "0:"
    INDEX 01 00:24:59
  TRACK 19 AUDIO
    TITLE "11:cjc041_1644"
    INDEX 01 00:25:41
  TRACK 20 AUDIO
    TITLE "0:"
    INDEX 01 00:28:66
  TRACK 21 AUDIO
    TITLE "10:cjc041_1645"
    INDEX 01 00:29:46
  TRACK 22 AUDIO
    TITLE "0:"
    INDEX 01 00:30:42
  TRACK 23 AUDIO
    TITLE "11:cjc041_1646"
    INDEX 01 00:31:27
  TRACK 24 AUDIO
    TITLE "0:"
    INDEX 01 00:32:39
  TRACK 25 AUDIO
    TITLE "10:cjc041_1647"
    INDEX 01 00:33:22
  TRACK 26 AUDIO
    TITLE "0:"
    INDEX 01 00:34:32
  TRACK 27 AUDIO
    TITLE "11:cjc041_1648"
    INDEX 01 00:35:10
  TRACK 28 AUDIO
    TITLE "0:"
    INDEX 01 00:36:33
  TRACK 29 AUDIO
    TITLE "10:cjc041_1649"
    INDEX 01 00:37:14
  TRACK 30 AUDIO
    TITLE "0:"
    INDEX 01 00:38:31
  TRACK 31 AUDIO
    TITLE "11:cjc041_1650"
    INDEX 01 00:39:07
  TRACK 32 AUDIO
    TITLE "0:"
    INDEX 01 00:40:48
  TRACK 33 AUDIO
    TITLE "10:cjc041_1651"
    INDEX 01 00:41:28
  TRACK 34 AUDIO
    TITLE "0:"
    INDEX 01 00:42:45
  TRACK 35 AUDIO
    TITLE "11:cjc041_1652"
    INDEX 01 00:43:27
  TRACK 36 AUDIO
    TITLE "0:"
    INDEX 01 00:45:71
  TRACK 37 AUDIO
    TITLE "10:cjc041_1653"
    INDEX 01 00:46:51
  TRACK 38 AUDIO
    TITLE "0:"
    INDEX 01 00:47:62
  TRACK 39 AUDIO
    TITLE "11:cjc041_1654"
    INDEX 01 00:48:40
  TRACK 40 AUDIO
    TITLE "0:"
    INDEX 01 00:49:61
  TRACK 41 AUDIO
    TITLE "10:cjc041_1655"
    INDEX 01 00:50:41
  TRACK 42 AUDIO
    TITLE "0:"
    INDEX 01 00:51:54
  TRACK 43 AUDIO
    TITLE "11:cjc041_1656"
    INDEX 01 00:52:32
  TRACK 44 AUDIO
    TITLE "0:"
    INDEX 01 00:56:16
  TRACK 45 AUDIO
    TITLE "10:cjc041_1657"
    INDEX 01 00:56:71
  TRACK 46 AUDIO
    TITLE "0:"
    INDEX 01 00:58:20
  TRACK 47 AUDIO
    TITLE "11:cjc041_1658"
    INDEX 01 00:58:73
  TRACK 48 AUDIO
    TITLE "0:"
    INDEX 01 01:00:02
  TRACK 49 AUDIO
    TITLE "10:cjc041_1659"
    INDEX 01 01:00:62
  TRACK 50 AUDIO
    TITLE "0:"
    INDEX 01 01:01:68
  TRACK 51 AUDIO
    TITLE "11:cjc041_1660"
    INDEX 01 01:02:54
  TRACK 52 AUDIO
    TITLE "0:"
    INDEX 01 01:04:37
  TRACK 53 AUDIO
    TITLE "10:cjc041_1661"
    INDEX 01 01:05:19
  TRACK 54 AUDIO
    TITLE "0:"
    INDEX 01 01:06:36
  TRACK 55 AUDIO
    TITLE "11:cjc041_1662"
    INDEX 01 01:07:17
  TRACK 56 AUDIO
    TITLE "0:"
    INDEX 01 01:08:40
  TRACK 57 AUDIO
    TITLE "10:cjc041_1663"
    INDEX 01 01:09:22
  TRACK 58 AUDIO
    TITLE "0:"
    INDEX 01 01:10:33
  TRACK 59 AUDIO
    TITLE "11:cjc041_1664"
    INDEX 01 01:11:11
  TRACK 60 AUDIO
    TITLE "0:"
    INDEX 01 01:13:57
  TRACK 61 AUDIO
    TITLE "10:cjc041_1665"
    INDEX 01 01:14:41
  TRACK 62 AUDIO
    TITLE "0:"
    INDEX 01 01:15:42
  TRACK 63 AUDIO
    TITLE "11:cjc041_1666"
    INDEX 01 01:16:24
  TRACK 64 AUDIO
    TITLE "0:"
    INDEX 01 01:17:35
